{"title":"Star Trek Continues E04 The White Iris RERELEASE WEBRip 720px264","uid":12202459,"size":670646257,"categoryP":"video","categoryS":"tv_shows","magnet":"?xt=urn:btih:81895deceb9dfe7d2d6efb14c78453b9813c8af2&amp;dn=Star+Trek+Continues+E04+The+White+Iris+RERELEASE+WEBRip+720px264&amp;tr=udp%3A%2F%2Ftracker.openbittorrent.com%3A80&amp;tr=udp%3A%2F%2Fopen.demonii.com%3A1337&amp;tr=udp%3A%2F%2Ftracker.coppersurfer.tk%3A6969&amp;tr=udp%3A%2F%2Fexodus.desync.com%3A6969","seeders":1,"leechers":0,"uploader":"F1_Dance","files":1,"time":1438860365,"description":"Rerelease of E04 that fixes a timeline issue regarding Kirk's time on the Farragut and his relationship with a crew member from that ship. Original release states 7 years ago; this rerelease states 13 years ago. Dialog change is at 14:13. Grab both releases for completeness. The original 'flubbed' version is no longer available from STC's video page.\n\nCaptain Kirk finds himself haunted by guilt from his past as the fate of an alien world hangs in the balance.\n\nGeneral\nComplete name : Star.Trek.Continues.E04.The.White.Iris.RERELEASE.WEBRip.720p.x264.mp4\nFormat : MPEG-4\nFormat profile : Base Media / Version 2\nCodec ID : mp42\nFile size : 640 MiB\nDuration : 47mn 54s\nOverall bit rate mode : Variable\nOverall bit rate : 1 867 Kbps\nEncoded date : UTC 2015-06-04 17:07:15\nTagged date : UTC 2015-06-04 17:07:15\n\nVideo\nID : 1\nFormat : AVC\nFormat/Info : Advanced Video Codec\nFormat profile : &lt;a class=&quot;__cf_email__&quot; href=&quot;/cdn-cgi/l/email-protection&quot; data-cfemail=&quot;c68eafa1ae868af5e8f7&quot;&gt;[email&amp;#160;protected]&lt;/a&gt;&lt;script data-cfhash='f9e31' type=&quot;text/javascript&quot;&gt;\n/* &lt;![CDATA[ */!function(){try{var t=&quot;currentScript&quot;in document?document.currentScript:function(){for(var t=document.getElementsByTagName(&quot;script&quot;),e=t.length;e--;)if(t[e].getAttribute(&quot;data-cfhash&quot;))return t[e]}();if(t&amp;&amp;t.previousSibling){var e,r,n,i,c=t.previousSibling,a=c.getAttribute(&quot;data-cfemail&quot;);if(a){for(e=&quot;&quot;,r=parseInt(a.substr(0,2),16),n=2;a.length-n;n+=2)i=parseInt(a.substr(n,2),16)^r,e+=String.fromCharCode(i);e=document.createTextNode(e),c.parentNode.replaceChild(e,c)}t.parentNode.removeChild(t);}}catch(u){}}()/* ]]&gt; */&lt;/script&gt;\nFormat settings, CABAC : Yes\nFormat settings, ReFrames : 4 frames\nCodec ID : avc1\nCodec ID/Info : Advanced Video Coding\nDuration : 47mn 54s\nBit rate : 1 703 Kbps\nWidth : 960 pixels\nHeight : 720 pixels\nDisplay aspect ratio : 4:3\nFrame rate mode : Constant\nFrame rate : 23.976 fps\nColor space : YUV\nChroma subsampling : 4:2:0\nBit depth : 8 bits\nScan type : Progressive\nBits/(Pixel*Frame) : 0.103\nStream size : 584 MiB (91%)\nWriting library : x264 core 146 r16 121396c\nEncoding settings : cabac=1 / ref=3 / deblock=1:0:0 / analyse=0x3:0x113 / me=hex / subme=7 / psy=1 / psy_rd=1.00:0.00 / mixed_ref=1 / me_range=16 / chroma_me=1 / trellis=1 / 8x8dct=1 / cqm=0 / deadzone=21,11 / fast_pskip=1 / chroma_qp_offset=-2 / threads=84 / lookahead_threads=5 / sliced_threads=0 / nr=0 / decimate=1 / interlaced=0 / bluray_compat=0 / stitchable=1 / constrained_intra=0 / bframes=3 / b_pyramid=2 / b_adapt=1 / b_bias=0 / direct=1 / weightb=1 / open_gop=0 / weightp=2 / keyint=infinite / keyint_min=23 / scenecut=40 / intra_refresh=0 / rc_lookahead=40 / rc=crf / mbtree=1 / crf=20.0 / qcomp=0.60 / qpmin=5 / qpmax=69 / qpstep=4 / vbv_maxrate=2750 / vbv_bufsize=7500 / crf_max=0.0 / nal_hrd=none / filler=0 / ip_ratio=1.40 / aq=1:1.00\nEncoded date : UTC 2015-06-04 17:07:15\nTagged date : UTC 2015-06-04 17:07:15\nColor range : Limited\nColor primaries : BT.709\nTransfer characteristics : BT.709\nMatrix coefficients : BT.709\n\nAudio\nID : 2\nFormat : AAC\nFormat/Info : Advanced Audio Codec\nFormat profile : LC\nCodec ID : 40\nDuration : 47mn 54s\nBit rate mode : Variable\nBit rate : 160 Kbps\nChannel(s) : 2 channels\nChannel positions : Front: L R\nSampling rate : 48.0 KHz\nCompression mode : Lossy\nStream size : 54.8 MiB (9%)\nEncoded date : UTC 2015-06-04 17:07:15\nTagged date : UTC 2015-06-04 17:07:15","torrent":{"xt":"urn:btih:81895deceb9dfe7d2d6efb14c78453b9813c8af2","amp;dn":"Star+Trek+Continues+E04+The+White+Iris+RERELEASE+WEBRip+720px264","amp;tr":["udp%3A%2F%2Ftracker.openbittorrent.com%3A80","udp%3A%2F%2Fopen.demonii.com%3A1337","udp%3A%2F%2Ftracker.coppersurfer.tk%3A6969","udp%3A%2F%2Fexodus.desync.com%3A6969"],"infoHash":"81895deceb9dfe7d2d6efb14c78453b9813c8af2","infoHashBuffer":{"type":"Buffer","data":[129,137,93,236,235,157,254,125,45,110,251,20,199,132,83,185,129,60,138,242]},"announce":[],"urlList":[]}}